<svg width="1086" height="538" viewBox="0 0 1086 538" fill="none" xmlns="http://www.w3.org/2000/svg">
<g opacity="0.8" filter="url(#filter0_b_865_100)">
<rect width="1086" height="538" rx="10" fill="#19192D"/>
</g>
<line x1="1" y1="57.5" x2="1086" y2="57.5" stroke="#585D6F"/>
<line x1="63.5" y1="538" x2="63.5" y2="58" stroke="#585D6F"/>
<line x1="64" y1="441.5" x2="1086" y2="441.5" stroke="#585D6F"/>
<path d="M41.0827 36.131L39.4312 34.3776L44.8577 28.6163L39.4312 22.855L41.0827 21.1016L48.1608 28.6163L41.0827 36.131Z" fill="#585D6F"/>
<path d="M25.9832 21.1014L27.6348 22.8549L22.2082 28.6161L27.6348 34.3774L25.9832 36.1309L18.9051 28.6161L25.9832 21.1014Z" fill="#585D6F"/>
<rect x="389" y="14" width="372" height="34" rx="8" fill="black" fill-opacity="0.25"/>
<path d="M483.22 36V30.078H480.952V29.07H483.22V27.684C483.22 27.096 483.402 26.634 483.766 26.298C484.14 25.9527 484.648 25.78 485.292 25.78H487.518V26.788H485.292C484.984 26.788 484.746 26.8673 484.578 27.026C484.42 27.1753 484.34 27.3947 484.34 27.684V29.07H487.518V30.078H484.34V36H483.22ZM490.325 36V28.3H491.417V29.728H491.683L491.291 30.61C491.3 29.826 491.492 29.224 491.865 28.804C492.238 28.3747 492.775 28.16 493.475 28.16C494.287 28.16 494.931 28.4167 495.407 28.93C495.892 29.434 496.135 30.1153 496.135 30.974V31.436H495.001V31.058C495.001 30.4327 494.847 29.952 494.539 29.616C494.231 29.2707 493.792 29.098 493.223 29.098C492.672 29.098 492.238 29.2707 491.921 29.616C491.604 29.9613 491.445 30.442 491.445 31.058V36H490.325ZM501.559 36.14C500.962 36.14 500.444 36.0233 500.005 35.79C499.567 35.5473 499.226 35.2067 498.983 34.768C498.741 34.3293 498.619 33.8207 498.619 33.242V31.058C498.619 30.47 498.741 29.9613 498.983 29.532C499.226 29.0933 499.567 28.7573 500.005 28.524C500.444 28.2813 500.962 28.16 501.559 28.16C502.157 28.16 502.675 28.2813 503.113 28.524C503.552 28.7573 503.893 29.0933 504.135 29.532C504.378 29.9613 504.499 30.47 504.499 31.058V32.416H499.711V33.242C499.711 33.8673 499.87 34.3527 500.187 34.698C500.514 35.034 500.971 35.202 501.559 35.202C502.054 35.202 502.455 35.104 502.763 34.908C503.081 34.712 503.281 34.4273 503.365 34.054H504.471C504.369 34.698 504.056 35.2067 503.533 35.58C503.011 35.9533 502.353 36.14 501.559 36.14ZM503.407 31.674V31.058C503.407 30.4327 503.249 29.952 502.931 29.616C502.614 29.2707 502.157 29.098 501.559 29.098C500.971 29.098 500.514 29.2707 500.187 29.616C499.87 29.952 499.711 30.4327 499.711 31.058V31.548H503.519L503.407 31.674ZM510.204 36.14C509.607 36.14 509.089 36.0233 508.65 35.79C508.211 35.5473 507.871 35.2067 507.628 34.768C507.385 34.3293 507.264 33.8207 507.264 33.242V31.058C507.264 30.47 507.385 29.9613 507.628 29.532C507.871 29.0933 508.211 28.7573 508.65 28.524C509.089 28.2813 509.607 28.16 510.204 28.16C510.801 28.16 511.319 28.2813 511.758 28.524C512.197 28.7573 512.537 29.0933 512.78 29.532C513.023 29.9613 513.144 30.47 513.144 31.058V32.416H508.356V33.242C508.356 33.8673 508.515 34.3527 508.832 34.698C509.159 35.034 509.616 35.202 510.204 35.202C510.699 35.202 511.1 35.104 511.408 34.908C511.725 34.712 511.926 34.4273 512.01 34.054H513.116C513.013 34.698 512.701 35.2067 512.178 35.58C511.655 35.9533 510.997 36.14 510.204 36.14ZM512.052 31.674V31.058C512.052 30.4327 511.893 29.952 511.576 29.616C511.259 29.2707 510.801 29.098 510.204 29.098C509.616 29.098 509.159 29.2707 508.832 29.616C508.515 29.952 508.356 30.4327 508.356 31.058V31.548H512.164L512.052 31.674ZM516.44 36L515.194 28.3H516.188L517.014 33.83C517.042 34.0353 517.07 34.264 517.098 34.516C517.136 34.768 517.164 34.978 517.182 35.146C517.201 34.978 517.234 34.768 517.28 34.516C517.327 34.264 517.364 34.0353 517.392 33.83L518.316 28.3H519.38L520.318 33.83C520.346 34.0353 520.379 34.264 520.416 34.516C520.463 34.768 520.496 34.978 520.514 35.146C520.533 34.978 520.561 34.768 520.598 34.516C520.645 34.264 520.682 34.0353 520.71 33.83L521.55 28.3H522.502L521.2 36H519.94L519.086 30.638C519.049 30.3767 519.002 30.1107 518.946 29.84C518.9 29.56 518.867 29.3407 518.848 29.182C518.82 29.3407 518.783 29.56 518.736 29.84C518.699 30.1107 518.657 30.3767 518.61 30.638L517.714 36H516.44ZM524.525 36V34.992H527.269V29.308H524.875V28.3H528.389V34.992H530.993V36H524.525ZM527.703 26.886C527.414 26.886 527.18 26.8113 527.003 26.662C526.835 26.5127 526.751 26.3073 526.751 26.046C526.751 25.7753 526.835 25.5607 527.003 25.402C527.18 25.2433 527.414 25.164 527.703 25.164C527.992 25.164 528.221 25.2433 528.389 25.402C528.566 25.5607 528.655 25.7753 528.655 26.046C528.655 26.298 528.566 26.5033 528.389 26.662C528.221 26.8113 527.992 26.886 527.703 26.886ZM537.146 36C536.707 36 536.324 35.916 535.998 35.748C535.68 35.58 535.433 35.3373 535.256 35.02C535.078 34.7027 534.99 34.3293 534.99 33.9V26.788H532.428V25.78H536.096V33.9C536.096 34.2453 536.189 34.516 536.376 34.712C536.562 34.8987 536.819 34.992 537.146 34.992H539.596V36H537.146ZM545.79 36C545.351 36 544.969 35.916 544.642 35.748C544.325 35.58 544.077 35.3373 543.9 35.02C543.723 34.7027 543.634 34.3293 543.634 33.9V26.788H541.072V25.78H544.74V33.9C544.74 34.2453 544.833 34.516 545.02 34.712C545.207 34.8987 545.463 34.992 545.79 34.992H548.24V36H545.79ZM552.825 36.14C552.013 36.14 551.373 35.9347 550.907 35.524C550.44 35.104 550.207 34.5393 550.207 33.83C550.207 33.13 550.435 32.5793 550.893 32.178C551.35 31.7673 551.966 31.562 552.741 31.562H555.191V30.75C555.191 30.2367 555.041 29.84 554.743 29.56C554.444 29.28 554.019 29.14 553.469 29.14C552.983 29.14 552.577 29.2473 552.251 29.462C551.933 29.6767 551.751 29.966 551.705 30.33H550.585C550.678 29.6673 550.986 29.14 551.509 28.748C552.041 28.356 552.703 28.16 553.497 28.16C554.355 28.16 555.037 28.3933 555.541 28.86C556.045 29.3173 556.297 29.938 556.297 30.722V36H555.205V34.502H555.023L555.233 34.278C555.233 34.8473 555.013 35.3 554.575 35.636C554.136 35.972 553.553 36.14 552.825 36.14ZM553.091 35.244C553.707 35.244 554.211 35.09 554.603 34.782C554.995 34.474 555.191 34.0727 555.191 33.578V32.416H552.755C552.316 32.416 551.966 32.5373 551.705 32.78C551.443 33.0227 551.313 33.354 551.313 33.774C551.313 34.222 551.471 34.5813 551.789 34.852C552.106 35.1133 552.54 35.244 553.091 35.244ZM559.103 36V34.992H561.847V29.308H559.453V28.3H562.967V34.992H565.571V36H559.103ZM562.281 26.886C561.992 26.886 561.758 26.8113 561.581 26.662C561.413 26.5127 561.329 26.3073 561.329 26.046C561.329 25.7753 561.413 25.5607 561.581 25.402C561.758 25.2433 561.992 25.164 562.281 25.164C562.57 25.164 562.799 25.2433 562.967 25.402C563.144 25.5607 563.233 25.7753 563.233 26.046C563.233 26.298 563.144 26.5033 562.967 26.662C562.799 26.8113 562.57 26.886 562.281 26.886ZM568.476 31.87V30.89H572.956V31.87H568.476ZM579.402 36.14C578.805 36.14 578.282 36.0233 577.834 35.79C577.386 35.5567 577.036 35.2253 576.784 34.796C576.541 34.3573 576.42 33.8393 576.42 33.242V31.058C576.42 30.4607 576.541 29.9473 576.784 29.518C577.036 29.0793 577.386 28.7433 577.834 28.51C578.282 28.2767 578.805 28.16 579.402 28.16C580.279 28.16 580.984 28.398 581.516 28.874C582.048 29.35 582.323 29.9987 582.342 30.82H581.236C581.217 30.288 581.045 29.8773 580.718 29.588C580.401 29.2987 579.962 29.154 579.402 29.154C578.833 29.154 578.38 29.322 578.044 29.658C577.708 29.9847 577.54 30.4513 577.54 31.058V33.242C577.54 33.8393 577.708 34.306 578.044 34.642C578.38 34.978 578.833 35.146 579.402 35.146C579.962 35.146 580.401 35.0013 580.718 34.712C581.045 34.4133 581.217 34.0027 581.236 33.48H582.342C582.323 34.3013 582.048 34.95 581.516 35.426C580.984 35.902 580.279 36.14 579.402 36.14ZM588.005 36.126C587.407 36.126 586.889 36.0093 586.451 35.776C586.012 35.5427 585.671 35.2067 585.429 34.768C585.186 34.3293 585.065 33.8113 585.065 33.214V31.086C585.065 30.4793 585.186 29.9613 585.429 29.532C585.671 29.0933 586.012 28.7573 586.451 28.524C586.889 28.2907 587.407 28.174 588.005 28.174C588.602 28.174 589.12 28.2907 589.559 28.524C589.997 28.7573 590.338 29.0933 590.581 29.532C590.823 29.9613 590.945 30.4747 590.945 31.072V33.214C590.945 33.8113 590.823 34.3293 590.581 34.768C590.338 35.2067 589.997 35.5427 589.559 35.776C589.12 36.0093 588.602 36.126 588.005 36.126ZM588.005 35.132C588.583 35.132 589.031 34.9687 589.349 34.642C589.666 34.3153 589.825 33.8393 589.825 33.214V31.086C589.825 30.4607 589.661 29.9847 589.335 29.658C589.017 29.3313 588.574 29.168 588.005 29.168C587.435 29.168 586.987 29.3313 586.661 29.658C586.343 29.9847 586.185 30.4607 586.185 31.086V33.214C586.185 33.8393 586.343 34.3153 586.661 34.642C586.987 34.9687 587.435 35.132 588.005 35.132ZM596.271 36.14C595.506 36.14 594.885 35.8833 594.409 35.37C593.943 34.8567 593.709 34.166 593.709 33.298V31.016C593.709 30.1387 593.943 29.4433 594.409 28.93C594.876 28.4167 595.497 28.16 596.271 28.16C596.915 28.16 597.433 28.3373 597.825 28.692C598.227 29.0467 598.427 29.5227 598.427 30.12L598.133 29.658H598.399L598.385 27.978V25.78H599.491V36H598.385V34.642H598.091L598.427 34.18C598.427 34.7867 598.227 35.2673 597.825 35.622C597.433 35.9673 596.915 36.14 596.271 36.14ZM596.621 35.174C597.172 35.174 597.601 35.006 597.909 34.67C598.227 34.3247 598.385 33.8487 598.385 33.242V31.058C598.385 30.4513 598.227 29.98 597.909 29.644C597.601 29.2987 597.172 29.126 596.621 29.126C596.061 29.126 595.623 29.294 595.305 29.63C594.988 29.966 594.829 30.442 594.829 31.058V33.242C594.829 33.858 594.988 34.334 595.305 34.67C595.623 35.006 596.061 35.174 596.621 35.174ZM605.294 36.14C604.696 36.14 604.178 36.0233 603.74 35.79C603.301 35.5473 602.96 35.2067 602.718 34.768C602.475 34.3293 602.354 33.8207 602.354 33.242V31.058C602.354 30.47 602.475 29.9613 602.718 29.532C602.96 29.0933 603.301 28.7573 603.74 28.524C604.178 28.2813 604.696 28.16 605.294 28.16C605.891 28.16 606.409 28.2813 606.848 28.524C607.286 28.7573 607.627 29.0933 607.87 29.532C608.112 29.9613 608.234 30.47 608.234 31.058V32.416H603.446V33.242C603.446 33.8673 603.604 34.3527 603.922 34.698C604.248 35.034 604.706 35.202 605.294 35.202C605.788 35.202 606.19 35.104 606.498 34.908C606.815 34.712 607.016 34.4273 607.1 34.054H608.206C608.103 34.698 607.79 35.2067 607.268 35.58C606.745 35.9533 606.087 36.14 605.294 36.14ZM607.142 31.674V31.058C607.142 30.4327 606.983 29.952 606.666 29.616C606.348 29.2707 605.891 29.098 605.294 29.098C604.706 29.098 604.248 29.2707 603.922 29.616C603.604 29.952 603.446 30.4327 603.446 31.058V31.548H607.254L607.142 31.674ZM611.698 31.87V30.89H616.178V31.87H611.698ZM622.583 36.14C621.985 36.14 621.467 36.0233 621.029 35.79C620.59 35.5473 620.249 35.2067 620.007 34.768C619.764 34.3293 619.643 33.8207 619.643 33.242V31.058C619.643 30.47 619.764 29.9613 620.007 29.532C620.249 29.0933 620.59 28.7573 621.029 28.524C621.467 28.2813 621.985 28.16 622.583 28.16C623.18 28.16 623.698 28.2813 624.137 28.524C624.575 28.7573 624.916 29.0933 625.159 29.532C625.401 29.9613 625.523 30.47 625.523 31.058V32.416H620.735V33.242C620.735 33.8673 620.893 34.3527 621.211 34.698C621.537 35.034 621.995 35.202 622.583 35.202C623.077 35.202 623.479 35.104 623.787 34.908C624.104 34.712 624.305 34.4273 624.389 34.054H625.495C625.392 34.698 625.079 35.2067 624.557 35.58C624.034 35.9533 623.376 36.14 622.583 36.14ZM624.431 31.674V31.058C624.431 30.4327 624.272 29.952 623.955 29.616C623.637 29.2707 623.18 29.098 622.583 29.098C621.995 29.098 621.537 29.2707 621.211 29.616C620.893 29.952 620.735 30.4327 620.735 31.058V31.548H624.543L624.431 31.674ZM630.849 36.14C630.084 36.14 629.463 35.8833 628.987 35.37C628.521 34.8567 628.287 34.166 628.287 33.298V31.016C628.287 30.1387 628.521 29.4433 628.987 28.93C629.454 28.4167 630.075 28.16 630.849 28.16C631.493 28.16 632.011 28.3373 632.403 28.692C632.805 29.0467 633.005 29.5227 633.005 30.12L632.711 29.658H632.977L632.963 27.978V25.78H634.069V36H632.963V34.642H632.669L633.005 34.18C633.005 34.7867 632.805 35.2673 632.403 35.622C632.011 35.9673 631.493 36.14 630.849 36.14ZM631.199 35.174C631.75 35.174 632.179 35.006 632.487 34.67C632.805 34.3247 632.963 33.8487 632.963 33.242V31.058C632.963 30.4513 632.805 29.98 632.487 29.644C632.179 29.2987 631.75 29.126 631.199 29.126C630.639 29.126 630.201 29.294 629.883 29.63C629.566 29.966 629.407 30.442 629.407 31.058V33.242C629.407 33.858 629.566 34.334 629.883 34.67C630.201 35.006 630.639 35.174 631.199 35.174ZM636.904 36V34.992H639.648V29.308H637.254V28.3H640.768V34.992H643.372V36H636.904ZM640.082 26.886C639.793 26.886 639.559 26.8113 639.382 26.662C639.214 26.5127 639.13 26.3073 639.13 26.046C639.13 25.7753 639.214 25.5607 639.382 25.402C639.559 25.2433 639.793 25.164 640.082 25.164C640.371 25.164 640.6 25.2433 640.768 25.402C640.945 25.5607 641.034 25.7753 641.034 26.046C641.034 26.298 640.945 26.5033 640.768 26.662C640.6 26.8113 640.371 26.886 640.082 26.886ZM649.356 36C648.712 36 648.213 35.832 647.858 35.496C647.504 35.1507 647.326 34.6653 647.326 34.04V29.308H645.142V28.3H647.326V26.13H648.446V28.3H651.54V29.308H648.446V34.04C648.446 34.6747 648.75 34.992 649.356 34.992H651.4V36H649.356ZM657.161 36.126C656.564 36.126 656.046 36.0093 655.607 35.776C655.168 35.5427 654.828 35.2067 654.585 34.768C654.342 34.3293 654.221 33.8113 654.221 33.214V31.086C654.221 30.4793 654.342 29.9613 654.585 29.532C654.828 29.0933 655.168 28.7573 655.607 28.524C656.046 28.2907 656.564 28.174 657.161 28.174C657.758 28.174 658.276 28.2907 658.715 28.524C659.154 28.7573 659.494 29.0933 659.737 29.532C659.98 29.9613 660.101 30.4747 660.101 31.072V33.214C660.101 33.8113 659.98 34.3293 659.737 34.768C659.494 35.2067 659.154 35.5427 658.715 35.776C658.276 36.0093 657.758 36.126 657.161 36.126ZM657.161 35.132C657.74 35.132 658.188 34.9687 658.505 34.642C658.822 34.3153 658.981 33.8393 658.981 33.214V31.086C658.981 30.4607 658.818 29.9847 658.491 29.658C658.174 29.3313 657.73 29.168 657.161 29.168C656.592 29.168 656.144 29.3313 655.817 29.658C655.5 29.9847 655.341 30.4607 655.341 31.086V33.214C655.341 33.8393 655.5 34.3153 655.817 34.642C656.144 34.9687 656.592 35.132 657.161 35.132ZM663.215 36V28.3H664.307V29.728H664.573L664.181 30.61C664.191 29.826 664.382 29.224 664.755 28.804C665.129 28.3747 665.665 28.16 666.365 28.16C667.177 28.16 667.821 28.4167 668.297 28.93C668.783 29.434 669.025 30.1153 669.025 30.974V31.436H667.891V31.058C667.891 30.4327 667.737 29.952 667.429 29.616C667.121 29.2707 666.683 29.098 666.113 29.098C665.563 29.098 665.129 29.2707 664.811 29.616C664.494 29.9613 664.335 30.442 664.335 31.058V36H663.215Z" fill="white"/>
<rect x="389.4" y="14.4" width="371.2" height="33.2" rx="7.6" stroke="black" stroke-opacity="0.25" stroke-width="0.8"/>
<defs>
<filter id="filter0_b_865_100" x="-20" y="-20" width="1126" height="578" filterUnits="userSpaceOnUse" color-interpolation-filters="sRGB">
<feFlood flood-opacity="0" result="BackgroundImageFix"/>
<feGaussianBlur in="BackgroundImageFix" stdDeviation="10"/>
<feComposite in2="SourceAlpha" operator="in" result="effect1_backgroundBlur_865_100"/>
<feBlend mode="normal" in="SourceGraphic" in2="effect1_backgroundBlur_865_100" result="shape"/>
</filter>
</defs>
</svg>
